<svg data-v-2cb57da0="" version="1.0" xmlns="http://www.w3.org/2000/svg" xmlns:xlink="http://www.w3.org/1999/xlink" width="100%" height="100%" viewBox="0 0 84 84" preserveAspectRatio="xMidYMid meet" color-interpolation-filters="sRGB" style="margin: auto;"><rect data-v-2cb57da0="" x="0" y="0" width="100%" height="100%" fill="#ffffff" fill-opacity="0" class="background"></rect> <!----> <g data-v-2cb57da0="" fill="#333" class="icon-text-wrapper icon-svg-group iconsvg" transform="translate(12, 16.2075252532959)"><g class="iconsvg-imagesvg" transform="translate(0,0)"><g><rect fill="#333" fill-opacity="0" stroke-width="2" x="0" y="0" width="60" height="51.58494751231591" class="image-rect"></rect> <svg filter="url(#colors86058410)" x="0" y="0" width="60" height="51.58494751231591" filtersec="colorsf522970123" class="image-svg-svg primary" style="overflow: visible;"><svg xmlns="http://www.w3.org/2000/svg" xmlns:xlink="http://www.w3.org/1999/xlink" viewBox="-0.00468754768371582 -0.000782012939453125 58.68000030517578 50.45000076293945"><path transform="translate(-1.0546875 50.44921875)" d="M18.11-50.45L18.11-50.45Q20.71-50.45 24.82-48.45L24.82-48.45Q28.16-46.05 28.27-45.35L28.27-45.35L28.27-35.19Q28.27-34.95 27.74-34.66L27.74-34.66L21.38-34.66Q21.13-34.66 20.85-35.19L20.85-35.19L20.85-42.12Q19.55-42.96 17.68-42.96L17.68-42.96Q15.86-42.96 12.23-41.73Q8.61-40.50 8.30-33.40L8.30-33.40Q8.33-33.08 8.33-32.73L8.33-32.73Q8.33-32.59 8.33-32.41L8.33-32.41L20.46-32.66Q20.64-32.27 20.64-30.52Q20.64-28.76 20.74-25.14L20.74-25.14L9.91-25.24L10.48-24.33Q14.59-17.26 28.27-7.07L28.27-7.07L28.27-0.35Q28.27 0 27.91 0L27.91 0Q20.04-4.68 11.78-12.16L11.78-12.16Q1.05-22.57 1.05-35.02L1.05-35.02Q1.05-41.52 7.42-47.18L7.42-47.18Q12.73-50.45 18.11-50.45ZM41.98-50.38L41.98-50.38L42.89-50.38Q49.68-50.38 54.42-45.88Q59.17-41.38 59.45-37.41Q59.73-33.43 59.73-32.87L59.73-32.87Q59.73-26.02 54.18-18.74L54.18-18.74Q47.32-10.16 39.97-5.10L39.97-5.10Q32.91-0.18 32.17-0.18L32.17-0.18L31.78-0.18L31.78-26.02Q31.85-26.37 32.17-26.37L32.17-26.37L39.34-26.23L39.41-12.97Q51.82-23.48 51.82-31.46L51.82-31.46L51.82-31.82Q51.82-39.66 45.81-42.36L45.81-42.36Q43.91-43.24 42.15-43.24L42.15-43.24Q41.55-43.24 40.10-43.00Q38.64-42.75 35.44-40.36L35.44-40.36Q34.52-39.66 32.34-37.09L32.34-37.09L32.17-37.09Q31.78-37.09 31.78-37.48L31.78-37.48L31.78-45.28Q36.18-50.38 41.98-50.38Z"></path></svg></svg> <defs><filter id="colors86058410"><feColorMatrix type="matrix" values="0 0 0 0 0.19921875  0 0 0 0 0.19921875  0 0 0 0 0.19921875  0 0 0 1 0" class="icon-fecolormatrix"></feColorMatrix></filter> <filter id="colorsf522970123"><feColorMatrix type="matrix" values="0 0 0 0 0.99609375  0 0 0 0 0.99609375  0 0 0 0 0.99609375  0 0 0 1 0" class="icon-fecolormatrix"></feColorMatrix></filter> <filter id="colorsb9019868270"><feColorMatrix type="matrix" values="0 0 0 0 0  0 0 0 0 0  0 0 0 0 0  0 0 0 1 0" class="icon-fecolormatrix"></feColorMatrix></filter></defs></g></g> <g transform="translate(30,58.5849494934082)"><g data-gra="path-name" fill-rule="" class="tp-name iconsvg-namesvg"><g transform="scale(1)"><g><path d="" transform="translate(0, 0)"></path></g> <!----> <!----> <!----> <!----> <!----> <!----> <!----></g></g> <!----></g></g><defs v-gra="od"></defs></svg>