<?xml version="1.0" encoding="UTF-8" standalone="no"?>
<svg
   data-v-2cb57da0=""
   version="1.0"
   width="402"
   height="120"
   viewBox="0 0 402 120"
   preserveAspectRatio="xMidYMid meet"
   color-interpolation-filters="sRGB"
   id="svg85"
   sodipodi:docname="10002 (2).svg"
   inkscape:version="1.1.2 (b8e25be833, 2022-02-05)"
   xmlns:inkscape="http://www.inkscape.org/namespaces/inkscape"
   xmlns:sodipodi="http://sodipodi.sourceforge.net/DTD/sodipodi-0.dtd"
   xmlns="http://www.w3.org/2000/svg"
   xmlns:svg="http://www.w3.org/2000/svg">
  <defs
     id="defs89" />
  <sodipodi:namedview
     id="namedview87"
     pagecolor="#ffff93"
     bordercolor="#666666"
     borderopacity="1.0"
     inkscape:pageshadow="2"
     inkscape:pageopacity="0"
     inkscape:pagecheckerboard="0"
     showgrid="false"
     inkscape:zoom="1.5558824"
     inkscape:cx="131.43667"
     inkscape:cy="30.529301"
     inkscape:window-width="1920"
     inkscape:window-height="1002"
     inkscape:window-x="-8"
     inkscape:window-y="-8"
     inkscape:window-maximized="1"
     inkscape:current-layer="svg85" />
  <rect
     data-v-2cb57da0=""
     x="0"
     y="0"
     width="100%"
     height="100%"
     fill="#ffffff"
     fill-opacity="0"
     class="background"
     id="rect2" />
  <!---->
  <g
     data-v-2cb57da0=""
     fill="#f757af"
     class="icon-text-wrapper icon-svg-group iconsvg"
     transform="matrix(2.0507078,0,0,1.9878067,2.0032624,4)"
     id="g83">
    <g
       class="iconsvg-imagesvg"
       id="g41">
      <g
         id="g39">
        <rect
           fill="#f757af"
           fill-opacity="0"
           stroke-width="2"
           x="0"
           y="0"
           width="66"
           height="57.128017"
           class="image-rect"
           id="rect4" />
        <svg
           x="0"
           y="0"
           width="66"
           height="57.128017"
           filtersec="colorsb7804656050"
           class="image-svg-svg primary"
           style="overflow:visible"
           version="1.1"
           id="svg37">
          <svg
             viewBox="-0.004837513 0.0039100647 116.29139 100.6593"
             version="1.1"
             id="svg35"
             width="100%"
             height="100%">
            <defs
               id="defs11">
              <linearGradient
                 id="e2bee52b-d1c5-4246-b86d-dabab915ef99"
                 x1="35.580002"
                 y1="86.589996"
                 x2="97.580002"
                 y2="24.59"
                 gradientTransform="matrix(1,0,0,-1,0,101.99)"
                 gradientUnits="userSpaceOnUse">
                <stop
                   offset="0"
                   stop-color="#ffb2c2"
                   id="stop6" />
                <stop
                   offset="1"
                   stop-color="#f85e8a"
                   id="stop8" />
              </linearGradient>
            </defs>
            <title
               id="title13">7619</title>
            <g
               id="bdb629a9-c5a0-4b5e-83f7-409ce17022fc">
              <g
                 id="f1d53a6a-9d11-4667-8b9e-c2b3e6492a78">
                <path
                   d="M 103.88,43.86 C 94.15,34 88,22.79 82.64,23.15 78.58,23.41 75.3,32 70.87,31.82 66.44,31.64 64.06,22.17 58.21,21.82 52.36,21.47 36.67,43.31 34.4,49.35 c -3.18,8.49 5.4,14.78 12.22,9.47 6.82,-5.31 11,-11.51 13.63,-11.51 2.63,0 5,9.91 9.82,9.91 4.82,0 9.56,-8.49 12.13,-9.22 5,-1.4 14.08,10.44 15.67,19.91 C 100,80.53 85.13,94.32 55.12,93.18 31.21,92.27 7.29,67.71 18.19,40.84 29.09,13.97 52.82,-1.63 80.44,0.14 c 27.62,1.77 36.51,27.31 34.1,38 -2.32,10.4 -7.48,8.95 -10.66,5.72 z"
                   fill="url(#e2bee52b-d1c5-4246-b86d-dabab915ef99)"
                   id="path15"
                   style="fill:url(#e2bee52b-d1c5-4246-b86d-dabab915ef99)" />
                <path
                   d="m 91.27,53.87 c -3.08,-3.95 -6.59,-6.55 -9.1,-5.85 -2.51,0.7 -7.35,9.2 -12.13,9.2 -4.78,0 -7.16,-9.91 -9.82,-9.91 -2.66,0 -6.82,6.2 -13.63,11.51 -6.81,5.31 -15.4,-1 -12.22,-9.47 2.27,-6 18,-27.88 23.81,-27.53 5.81,0.35 8.24,9.83 12.66,10 4.42,0.17 7.71,-8.41 11.77,-8.67 2.07,-0.14 4.23,1.41 6.66,3.92 C 78.51,13.89 57.79,9.34 39.86,12 24.53,14.3 11.24,21.87 8,33.84 4.76,45.81 8.6,54.9 16.27,61.55 c 25.28,21.94 91.37,16.58 75,-7.68 z"
                   fill="#ff0098"
                   opacity="0.6"
                   id="path17" />
                <path
                   d="m 82.2,48 c -2.57,0.71 -7.35,9.2 -12.13,9.2 -4.78,0 -7.16,-9.91 -9.82,-9.91 -2.66,0 -6.82,6.2 -13.63,11.51 -6.81,5.31 -15.4,-1 -12.22,-9.47 0.86,-2.28 3.64,-6.82 7.07,-11.57 C 28.38,55 26.09,71.47 30,83.26 L 31.35,84.34 30,83.26 c 3.72,11.25 13.08,18.2 24.07,17.33 5.33,-0.43 10.7,-3.74 15.78,-8.15 v 0 C 83.79,80.32 95.49,59.88 97.85,67.93 96.28,58.46 87.23,46.62 82.2,48 Z M 55.12,93.18 a 42.71,42.71 0 0 1 -23.71,-8.81 42.64,42.64 0 0 0 23.72,8.81 78.46,78.46 0 0 0 14.29,-0.69 78.57,78.57 0 0 1 -14.3,0.69 z"
                   fill="#6d59d1"
                   opacity="0.5"
                   style="isolation:isolate"
                   id="path19" />
                <g
                   opacity="0.5"
                   id="g25">
                  <path
                     d="m 109.78,9.37 a 10.68,10.68 0 0 0 -8.63,-1.75 35.88,35.88 0 0 1 10.24,12.75 c 1.82,-4.37 2.2,-8.24 -1.61,-11 z"
                     fill="#ff8d27"
                     id="path21" />
                  <path
                     d="m 101.15,7.65 c -13.42,2.54 -29,24.4 -35.21,20.37 1.56,2 3.06,3.73 4.93,3.8 C 75.3,32 78.58,23.41 82.64,23.15 88,22.79 94.15,34 103.88,43.86 c -3.8,-6.31 4.22,-15.61 7.51,-23.49 A 35.87,35.87 0 0 0 101.15,7.65 Z"
                     fill="#ff8d27"
                     id="path23" />
                </g>
                <path
                   d="m 101.68,55 c -2.78,1.81 6.1,21.57 12.3,17.56 6.2,-4.01 -9.53,-19.4 -12.3,-17.56 z M 14.93,69.64 c 2,1.64 -1.86,9.93 -6.4,6.3 -4.54,-3.63 4.37,-7.94 6.4,-6.3 z"
                   fill="#f757af"
                   id="path27" />
                <path
                   d="m 108.79,51.91 c -3.46,1.37 4.56,7.83 7,4.85 2.44,-2.98 -4.79,-5.76 -7,-4.85 z M 70.66,95.56 c -0.83,3.57 4.14,3.64 3.11,0.12 -0.58,-2.01 -2.64,-2.1 -3.11,-0.12 z"
                   fill="#ab8eeb"
                   id="path29" />
                <path
                   d="m 12.61,65.21 c -1.66,2.29 -6.29,5.18 -10,4.25 -3.1,-0.79 -5.6,-9.18 5.75,-7.76 6.47,0.82 5.04,2.41 4.25,3.51 z"
                   fill="#ffbd88"
                   id="path31" />
              </g>
            </g>
          </svg>
        </svg>
        <!---->
      </g>
    </g>
    <g
       transform="translate(78,7.9861755)"
       id="g81">
      <g
         fill-rule=""
         class="iconsvg-namesvg tp-name"
         id="g79">
        <g
           id="g77">
          <g
             id="g56">
            <g
               mask="url(#B9VjvFzqpP6Uyoi4HCce0)"
               filter="url(#text-effect-stroke-shadow-mIUNx8ZsoM6IU2NV0luBL)"
               stroke="#000000"
               stroke-width="1"
               stroke-linecap="round"
               stroke-linejoin="round"
               paint-order="stroke"
               data-gra-ignore-stroke="true"
               id="g45">
              <path
                 d="m 18.23,-18.43 q 0.72,0 1.16,0.45 0.45,0.46 0.45,1.21 v 0 15.37 q 0,0.72 -0.42,1.14 Q 19,0.16 18.33,0.16 v 0 q -0.68,0 -1.06,-0.42 -0.39,-0.42 -0.39,-1.14 v 0 -10.7 l -4.42,8.36 q -0.31,0.57 -0.67,0.85 -0.37,0.27 -0.86,0.27 v 0 q -0.49,0 -0.86,-0.26 Q 9.71,-3.14 9.4,-3.74 v 0 L 4.96,-11.97 V -1.4 q 0,0.7 -0.4,1.13 -0.41,0.43 -1.08,0.43 v 0 Q 2.8,0.16 2.41,-0.26 2.03,-0.68 2.03,-1.4 v 0 -15.37 q 0,-0.75 0.42,-1.21 0.43,-0.45 1.16,-0.45 v 0 q 1.01,0 1.58,1.11 v 0 l 5.77,10.99 5.73,-10.99 q 0.58,-1.11 1.54,-1.11 z M 40.4,-2 q 0.15,0.34 0.15,0.68 v 0 q 0,0.59 -0.48,1.01 -0.48,0.41 -1.1,0.41 v 0 q -0.42,0 -0.78,-0.22 -0.36,-0.22 -0.57,-0.68 v 0 l -1.56,-3.48 h -9.14 l -1.55,3.48 q -0.21,0.46 -0.58,0.68 -0.36,0.22 -0.8,0.22 v 0 q -0.6,0 -1.09,-0.41 -0.49,-0.42 -0.49,-1.01 v 0 q 0,-0.34 0.15,-0.68 v 0 l 7.17,-15.4 q 0.23,-0.51 0.71,-0.79 0.48,-0.27 1.03,-0.27 v 0 q 0.54,0 1.02,0.27 0.48,0.28 0.72,0.79 v 0 z m -8.91,-12.59 -3.42,7.71 h 6.85 z M 50.68,0.23 q -2.65,0 -4.63,-1.14 -1.99,-1.14 -3.06,-3.27 -1.06,-2.13 -1.06,-4.98 v 0 q 0,-2.86 1.06,-4.98 1.07,-2.11 3.06,-3.26 1.98,-1.14 4.63,-1.14 v 0 q 1.71,0 3.22,0.51 1.5,0.51 2.67,1.47 v 0 q 0.34,0.26 0.47,0.54 0.13,0.29 0.13,0.7 v 0 q 0,0.57 -0.31,0.96 -0.31,0.39 -0.75,0.39 v 0 q -0.52,0 -1.07,-0.36 v 0 q -1.12,-0.83 -2.08,-1.16 -0.96,-0.32 -2.12,-0.32 v 0 q -2.7,0 -4.09,1.69 -1.39,1.68 -1.39,4.96 v 0 q 0,3.29 1.39,4.98 1.39,1.69 4.09,1.69 v 0 q 1.11,0 2.06,-0.34 0.95,-0.34 2.14,-1.14 v 0 q 0.26,-0.16 0.52,-0.26 0.26,-0.11 0.55,-0.11 v 0 q 0.44,0 0.75,0.39 0.31,0.39 0.31,0.96 v 0 q 0,0.39 -0.13,0.69 -0.13,0.3 -0.47,0.56 v 0 q -1.17,0.96 -2.67,1.47 -1.51,0.5 -3.22,0.5 z m 23.73,-18.66 q 0.75,0 1.19,0.45 0.45,0.46 0.45,1.21 v 0 15.24 q 0,0.75 -0.46,1.22 -0.45,0.47 -1.18,0.47 v 0 q -0.75,0 -1.19,-0.47 -0.45,-0.47 -0.45,-1.22 v 0 -6.41 H 63.4 v 6.41 q 0,0.75 -0.45,1.22 -0.46,0.47 -1.21,0.47 v 0 q -0.73,0 -1.18,-0.47 -0.46,-0.47 -0.46,-1.22 v 0 -15.24 q 0,-0.75 0.45,-1.21 0.44,-0.45 1.19,-0.45 v 0 q 0.75,0 1.21,0.45 0.45,0.46 0.45,1.21 v 0 6.13 h 9.37 v -6.13 q 0,-0.75 0.45,-1.21 0.44,-0.45 1.19,-0.45 z m 7.24,18.59 q -0.75,0 -1.2,-0.47 -0.46,-0.47 -0.46,-1.22 v 0 -15.24 q 0,-0.75 0.46,-1.21 0.45,-0.45 1.2,-0.45 v 0 q 0.78,0 1.24,0.45 0.45,0.46 0.45,1.21 v 0 15.24 q 0,0.75 -0.45,1.22 -0.46,0.47 -1.24,0.47 z M 88.9,0 q -0.76,0 -1.18,-0.42 -0.43,-0.41 -0.43,-1.16 v 0 -15.14 q 0,-0.75 0.43,-1.17 0.42,-0.41 1.18,-0.41 v 0 h 9.37 q 0.75,0 1.17,0.33 0.41,0.34 0.41,0.96 v 0 q 0,0.65 -0.41,1 -0.42,0.35 -1.17,0.35 v 0 h -7.71 v 5.04 h 7.19 q 0.75,0 1.17,0.34 0.41,0.34 0.41,0.99 v 0 q 0,0.62 -0.41,0.96 Q 98.5,-8 97.75,-8 v 0 h -7.19 v 5.35 h 7.71 q 0.75,0 1.17,0.35 0.41,0.35 0.41,1 v 0 q 0,0.62 -0.41,0.96 Q 99.02,0 98.27,0 v 0 z m 27.54,-18.43 q 0.73,0 1.16,0.45 0.43,0.46 0.43,1.21 v 0 15.24 q 0,0.75 -0.44,1.22 -0.45,0.47 -1.15,0.47 v 0 q -0.83,0 -1.27,-0.6 v 0 l -9.48,-12.33 v 11.24 q 0,0.75 -0.41,1.22 -0.42,0.47 -1.14,0.47 v 0 q -0.73,0 -1.15,-0.47 -0.41,-0.47 -0.41,-1.22 v 0 -15.24 q 0,-0.75 0.44,-1.21 0.44,-0.45 1.17,-0.45 v 0 q 0.8,0 1.24,0.59 v 0 l 9.46,12.28 v -11.21 q 0,-0.75 0.42,-1.21 0.43,-0.45 1.13,-0.45 z"
                 transform="translate(-2.03,18.540001)"
                 id="path43" />
            </g>
            <defs
               id="defs54">
              <filter
                 id="text-effect-stroke-shadow-mIUNx8ZsoM6IU2NV0luBL"
                 filterUnits="objectBoundingBox"
                 width="1.0086207"
                 height="1.0532765"
                 x="-0.0043103448"
                 y="-0.026638253">
                <feDropShadow
                   dx="1.5"
                   dy="1.5"
                   stdDeviation="0"
                   flood-color="#CCCCCC"
                   flood-opacity="1" />
              </filter>
              <filter
                 id="text-effect-stroke-shadow-mask-mIUNx8ZsoM6IU2NV0luBL"
                 filterUnits="objectBoundingBox"
                 width="1.0086207"
                 height="1.0532765"
                 x="-0.0043103448"
                 y="-0.026638253">
                <feDropShadow
                   dx="1.5"
                   dy="1.5"
                   stdDeviation="0"
                   flood-color="white"
                   flood-opacity="1" />
              </filter>
              <mask
                 id="B9VjvFzqpP6Uyoi4HCce0">
                <g
                   filter="url(#text-effect-stroke-shadow-mask-mIUNx8ZsoM6IU2NV0luBL)"
                   stroke="#000000"
                   stroke-width="1"
                   stroke-linecap="round"
                   stroke-linejoin="round"
                   paint-order="stroke"
                   data-gra-ignore-stroke="true"
                   data-gra-ignore-fill="true"
                   fill="#ffffff"
                   id="g51">
                  <path
                     d="m 18.23,-18.43 q 0.72,0 1.16,0.45 0.45,0.46 0.45,1.21 v 0 15.37 q 0,0.72 -0.42,1.14 Q 19,0.16 18.33,0.16 v 0 q -0.68,0 -1.06,-0.42 -0.39,-0.42 -0.39,-1.14 v 0 -10.7 l -4.42,8.36 q -0.31,0.57 -0.67,0.85 -0.37,0.27 -0.86,0.27 v 0 q -0.49,0 -0.86,-0.26 Q 9.71,-3.14 9.4,-3.74 v 0 L 4.96,-11.97 V -1.4 q 0,0.7 -0.4,1.13 -0.41,0.43 -1.08,0.43 v 0 Q 2.8,0.16 2.41,-0.26 2.03,-0.68 2.03,-1.4 v 0 -15.37 q 0,-0.75 0.42,-1.21 0.43,-0.45 1.16,-0.45 v 0 q 1.01,0 1.58,1.11 v 0 l 5.77,10.99 5.73,-10.99 q 0.58,-1.11 1.54,-1.11 z M 40.4,-2 q 0.15,0.34 0.15,0.68 v 0 q 0,0.59 -0.48,1.01 -0.48,0.41 -1.1,0.41 v 0 q -0.42,0 -0.78,-0.22 -0.36,-0.22 -0.57,-0.68 v 0 l -1.56,-3.48 h -9.14 l -1.55,3.48 q -0.21,0.46 -0.58,0.68 -0.36,0.22 -0.8,0.22 v 0 q -0.6,0 -1.09,-0.41 -0.49,-0.42 -0.49,-1.01 v 0 q 0,-0.34 0.15,-0.68 v 0 l 7.17,-15.4 q 0.23,-0.51 0.71,-0.79 0.48,-0.27 1.03,-0.27 v 0 q 0.54,0 1.02,0.27 0.48,0.28 0.72,0.79 v 0 z m -8.91,-12.59 -3.42,7.71 h 6.85 z M 50.68,0.23 q -2.65,0 -4.63,-1.14 -1.99,-1.14 -3.06,-3.27 -1.06,-2.13 -1.06,-4.98 v 0 q 0,-2.86 1.06,-4.98 1.07,-2.11 3.06,-3.26 1.98,-1.14 4.63,-1.14 v 0 q 1.71,0 3.22,0.51 1.5,0.51 2.67,1.47 v 0 q 0.34,0.26 0.47,0.54 0.13,0.29 0.13,0.7 v 0 q 0,0.57 -0.31,0.96 -0.31,0.39 -0.75,0.39 v 0 q -0.52,0 -1.07,-0.36 v 0 q -1.12,-0.83 -2.08,-1.16 -0.96,-0.32 -2.12,-0.32 v 0 q -2.7,0 -4.09,1.69 -1.39,1.68 -1.39,4.96 v 0 q 0,3.29 1.39,4.98 1.39,1.69 4.09,1.69 v 0 q 1.11,0 2.06,-0.34 0.95,-0.34 2.14,-1.14 v 0 q 0.26,-0.16 0.52,-0.26 0.26,-0.11 0.55,-0.11 v 0 q 0.44,0 0.75,0.39 0.31,0.39 0.31,0.96 v 0 q 0,0.39 -0.13,0.69 -0.13,0.3 -0.47,0.56 v 0 q -1.17,0.96 -2.67,1.47 -1.51,0.5 -3.22,0.5 z m 23.73,-18.66 q 0.75,0 1.19,0.45 0.45,0.46 0.45,1.21 v 0 15.24 q 0,0.75 -0.46,1.22 -0.45,0.47 -1.18,0.47 v 0 q -0.75,0 -1.19,-0.47 -0.45,-0.47 -0.45,-1.22 v 0 -6.41 H 63.4 v 6.41 q 0,0.75 -0.45,1.22 -0.46,0.47 -1.21,0.47 v 0 q -0.73,0 -1.18,-0.47 -0.46,-0.47 -0.46,-1.22 v 0 -15.24 q 0,-0.75 0.45,-1.21 0.44,-0.45 1.19,-0.45 v 0 q 0.75,0 1.21,0.45 0.45,0.46 0.45,1.21 v 0 6.13 h 9.37 v -6.13 q 0,-0.75 0.45,-1.21 0.44,-0.45 1.19,-0.45 z m 7.24,18.59 q -0.75,0 -1.2,-0.47 -0.46,-0.47 -0.46,-1.22 v 0 -15.24 q 0,-0.75 0.46,-1.21 0.45,-0.45 1.2,-0.45 v 0 q 0.78,0 1.24,0.45 0.45,0.46 0.45,1.21 v 0 15.24 q 0,0.75 -0.45,1.22 -0.46,0.47 -1.24,0.47 z M 88.9,0 q -0.76,0 -1.18,-0.42 -0.43,-0.41 -0.43,-1.16 v 0 -15.14 q 0,-0.75 0.43,-1.17 0.42,-0.41 1.18,-0.41 v 0 h 9.37 q 0.75,0 1.17,0.33 0.41,0.34 0.41,0.96 v 0 q 0,0.65 -0.41,1 -0.42,0.35 -1.17,0.35 v 0 h -7.71 v 5.04 h 7.19 q 0.75,0 1.17,0.34 0.41,0.34 0.41,0.99 v 0 q 0,0.62 -0.41,0.96 Q 98.5,-8 97.75,-8 v 0 h -7.19 v 5.35 h 7.71 q 0.75,0 1.17,0.35 0.41,0.35 0.41,1 v 0 q 0,0.62 -0.41,0.96 Q 99.02,0 98.27,0 v 0 z m 27.54,-18.43 q 0.73,0 1.16,0.45 0.43,0.46 0.43,1.21 v 0 15.24 q 0,0.75 -0.44,1.22 -0.45,0.47 -1.15,0.47 v 0 q -0.83,0 -1.27,-0.6 v 0 l -9.48,-12.33 v 11.24 q 0,0.75 -0.41,1.22 -0.42,0.47 -1.14,0.47 v 0 q -0.73,0 -1.15,-0.47 -0.41,-0.47 -0.41,-1.22 v 0 -15.24 q 0,-0.75 0.44,-1.21 0.44,-0.45 1.17,-0.45 v 0 q 0.8,0 1.24,0.59 v 0 l 9.46,12.28 v -11.21 q 0,-0.75 0.42,-1.21 0.43,-0.45 1.13,-0.45 z"
                     transform="translate(-2.03,18.540001)"
                     id="path49" />
                </g>
              </mask>
            </defs>
          </g>
          <g
             transform="translate(0,21.77)"
             id="g75">
            <g
               transform="scale(0.98205)"
               id="g73">
              <g
                 mask="url(#cXO41aJNYdCtxHMBkPZXV)"
                 filter="url(#text-effect-stroke-shadow-mIUNx8ZsoM6IU2NV0luBL)"
                 stroke="#000000"
                 stroke-width="1"
                 stroke-linecap="round"
                 stroke-linejoin="round"
                 paint-order="stroke"
                 data-gra-ignore-stroke="true"
                 fill="#f757af"
                 id="g60">
                <path
                   d="m 8.73,0.25 q -2.1,0 -3.97,-0.56 -1.87,-0.56 -3.04,-1.52 v 0 Q 1.09,-2.29 1.09,-3.14 v 0 q 0,-0.57 0.34,-0.99 0.34,-0.43 0.81,-0.43 v 0 q 0.49,0 1.12,0.38 v 0 q 1.17,0.85 2.45,1.23 1.29,0.38 2.84,0.38 v 0 q 1.99,0 3.06,-0.69 1.06,-0.7 1.06,-2.03 v 0 q 0,-1.04 -0.99,-1.6 -1,-0.56 -3.32,-1.08 v 0 q -2.4,-0.52 -3.9,-1.2 -1.5,-0.68 -2.27,-1.75 -0.76,-1.06 -0.76,-2.7 v 0 q 0,-1.69 0.95,-3.03 0.96,-1.33 2.66,-2.09 1.71,-0.75 3.84,-0.75 v 0 q 3.9,0 6.36,2.08 v 0 q 0.35,0.3 0.5,0.58 0.15,0.29 0.15,0.73 v 0 q 0,0.57 -0.34,0.99 -0.34,0.43 -0.8,0.43 v 0 q -0.28,0 -0.51,-0.08 -0.23,-0.09 -0.61,-0.3 v 0 q -1.12,-0.82 -2.17,-1.22 -1.05,-0.4 -2.58,-0.4 v 0 q -1.86,0 -2.93,0.76 -1.08,0.75 -1.08,2.08 v 0 q 0,1.12 0.95,1.72 0.96,0.6 3.25,1.12 v 0 q 2.43,0.55 3.94,1.22 1.52,0.66 2.32,1.7 0.81,1.04 0.81,2.59 v 0 q 0,1.7 -0.94,2.99 -0.94,1.3 -2.65,2.02 -1.71,0.73 -3.92,0.73 z m 34.53,-18.56 q 0.19,-0.55 0.61,-0.82 0.42,-0.27 0.94,-0.27 v 0 q 0.66,0 1.13,0.41 0.48,0.4 0.48,1.09 v 0 q 0,0.24 -0.13,0.71 v 0 l -5.87,16.23 q -0.22,0.55 -0.72,0.85 -0.51,0.3 -1.11,0.3 v 0 q -0.6,0 -1.12,-0.3 -0.52,-0.3 -0.71,-0.85 v 0 l -4.53,-12.85 -4.61,12.85 q -0.22,0.55 -0.72,0.85 -0.51,0.3 -1.11,0.3 v 0 q -0.6,0 -1.1,-0.3 -0.51,-0.3 -0.7,-0.85 v 0 l -5.87,-16.23 q -0.14,-0.41 -0.14,-0.71 v 0 q 0,-0.69 0.51,-1.09 0.5,-0.41 1.19,-0.41 v 0 q 0.54,0 0.98,0.27 0.44,0.27 0.63,0.82 v 0 l 4.64,13.34 4.77,-13.26 q 0.19,-0.55 0.63,-0.86 0.44,-0.31 0.96,-0.31 v 0 q 0.51,0 0.96,0.31 0.45,0.31 0.65,0.89 v 0 l 4.64,13.4 z M 51.12,0 q -0.79,0 -1.25,-0.44 -0.45,-0.43 -0.45,-1.22 v 0 -15.92 q 0,-0.79 0.45,-1.22 0.46,-0.44 1.25,-0.44 v 0 h 9.85 q 0.79,0 1.23,0.35 0.43,0.36 0.43,1.01 v 0 q 0,0.69 -0.43,1.05 -0.44,0.37 -1.23,0.37 v 0 h -8.11 v 5.3 h 7.56 q 0.79,0 1.23,0.35 0.44,0.36 0.44,1.04 v 0 q 0,0.65 -0.44,1.01 -0.44,0.35 -1.23,0.35 v 0 h -7.56 v 5.63 h 8.11 q 0.79,0 1.23,0.36 0.43,0.37 0.43,1.06 v 0 q 0,0.65 -0.43,1.01 Q 61.76,0 60.97,0 V 0 Z M 67.19,0 Q 66.4,0 65.95,-0.44 65.5,-0.87 65.5,-1.66 v 0 -15.92 q 0,-0.79 0.45,-1.22 0.45,-0.44 1.24,-0.44 v 0 h 9.85 q 0.79,0 1.23,0.35 0.44,0.36 0.44,1.01 v 0 q 0,0.69 -0.44,1.05 -0.44,0.37 -1.23,0.37 v 0 h -8.1 v 5.3 h 7.56 q 0.79,0 1.23,0.35 0.43,0.36 0.43,1.04 v 0 q 0,0.65 -0.43,1.01 -0.44,0.35 -1.23,0.35 v 0 h -7.56 v 5.63 h 8.1 q 0.79,0 1.23,0.36 0.44,0.37 0.44,1.06 v 0 q 0,0.65 -0.44,1.01 Q 77.83,0 77.04,0 v 0 z m 20.72,0.14 q -0.82,0 -1.3,-0.48 -0.48,-0.48 -0.48,-1.27 v 0 -14.74 h -4.97 q -1.63,0 -1.63,-1.44 v 0 q 0,-1.45 1.63,-1.45 v 0 h 13.46 q 1.64,0 1.64,1.45 v 0 q 0,1.44 -1.64,1.44 v 0 h -4.97 v 14.74 q 0,0.79 -0.48,1.27 -0.47,0.48 -1.26,0.48 z m 12.17,0.02 q -0.79,0 -1.27,-0.49 -0.48,-0.49 -0.48,-1.28 v 0 -16.02 q 0,-0.79 0.48,-1.27 0.48,-0.48 1.27,-0.48 v 0 q 0.82,0 1.29,0.48 0.48,0.48 0.48,1.27 v 0 16.02 q 0,0.79 -0.48,1.28 -0.47,0.49 -1.29,0.49 z M 107.69,0 Q 106.9,0 106.45,-0.44 106,-0.87 106,-1.66 v 0 -15.92 q 0,-0.79 0.45,-1.22 0.45,-0.44 1.24,-0.44 v 0 h 9.85 q 0.8,0 1.23,0.35 0.44,0.36 0.44,1.01 v 0 q 0,0.69 -0.44,1.05 -0.43,0.37 -1.23,0.37 v 0 h -8.1 v 5.3 H 117 q 0.79,0 1.23,0.35 0.43,0.36 0.43,1.04 v 0 q 0,0.65 -0.43,1.01 -0.44,0.35 -1.23,0.35 v 0 h -7.56 v 5.63 h 8.1 q 0.8,0 1.23,0.36 0.44,0.37 0.44,1.06 v 0 q 0,0.65 -0.44,1.01 Q 118.34,0 117.54,0 v 0 z"
                   transform="translate(-1.09,19.49)"
                   id="path58" />
              </g>
              <defs
                 id="defs71">
                <filter
                   id="filter62"
                   filterUnits="objectBoundingBox"
                   width="2"
                   height="2"
                   x="-0.2"
                   y="-0.2">
                  <feDropShadow
                     dx="1.5"
                     dy="1.5"
                     stdDeviation="0"
                     flood-color="#CCCCCC"
                     flood-opacity="1" />
                </filter>
                <filter
                   id="filter64"
                   filterUnits="objectBoundingBox"
                   width="2"
                   height="2"
                   x="-0.2"
                   y="-0.2">
                  <feDropShadow
                     dx="1.5"
                     dy="1.5"
                     stdDeviation="0"
                     flood-color="white"
                     flood-opacity="1" />
                </filter>
                <mask
                   id="cXO41aJNYdCtxHMBkPZXV">
                  <g
                     filter="url(#text-effect-stroke-shadow-mask-mIUNx8ZsoM6IU2NV0luBL)"
                     stroke="#000000"
                     stroke-width="1"
                     stroke-linecap="round"
                     stroke-linejoin="round"
                     paint-order="stroke"
                     data-gra-ignore-stroke="true"
                     data-gra-ignore-fill="true"
                     fill="#ffffff"
                     id="g68">
                    <path
                       d="m 8.73,0.25 q -2.1,0 -3.97,-0.56 -1.87,-0.56 -3.04,-1.52 v 0 Q 1.09,-2.29 1.09,-3.14 v 0 q 0,-0.57 0.34,-0.99 0.34,-0.43 0.81,-0.43 v 0 q 0.49,0 1.12,0.38 v 0 q 1.17,0.85 2.45,1.23 1.29,0.38 2.84,0.38 v 0 q 1.99,0 3.06,-0.69 1.06,-0.7 1.06,-2.03 v 0 q 0,-1.04 -0.99,-1.6 -1,-0.56 -3.32,-1.08 v 0 q -2.4,-0.52 -3.9,-1.2 -1.5,-0.68 -2.27,-1.75 -0.76,-1.06 -0.76,-2.7 v 0 q 0,-1.69 0.95,-3.03 0.96,-1.33 2.66,-2.09 1.71,-0.75 3.84,-0.75 v 0 q 3.9,0 6.36,2.08 v 0 q 0.35,0.3 0.5,0.58 0.15,0.29 0.15,0.73 v 0 q 0,0.57 -0.34,0.99 -0.34,0.43 -0.8,0.43 v 0 q -0.28,0 -0.51,-0.08 -0.23,-0.09 -0.61,-0.3 v 0 q -1.12,-0.82 -2.17,-1.22 -1.05,-0.4 -2.58,-0.4 v 0 q -1.86,0 -2.93,0.76 -1.08,0.75 -1.08,2.08 v 0 q 0,1.12 0.95,1.72 0.96,0.6 3.25,1.12 v 0 q 2.43,0.55 3.94,1.22 1.52,0.66 2.32,1.7 0.81,1.04 0.81,2.59 v 0 q 0,1.7 -0.94,2.99 -0.94,1.3 -2.65,2.02 -1.71,0.73 -3.92,0.73 z m 34.53,-18.56 q 0.19,-0.55 0.61,-0.82 0.42,-0.27 0.94,-0.27 v 0 q 0.66,0 1.13,0.41 0.48,0.4 0.48,1.09 v 0 q 0,0.24 -0.13,0.71 v 0 l -5.87,16.23 q -0.22,0.55 -0.72,0.85 -0.51,0.3 -1.11,0.3 v 0 q -0.6,0 -1.12,-0.3 -0.52,-0.3 -0.71,-0.85 v 0 l -4.53,-12.85 -4.61,12.85 q -0.22,0.55 -0.72,0.85 -0.51,0.3 -1.11,0.3 v 0 q -0.6,0 -1.1,-0.3 -0.51,-0.3 -0.7,-0.85 v 0 l -5.87,-16.23 q -0.14,-0.41 -0.14,-0.71 v 0 q 0,-0.69 0.51,-1.09 0.5,-0.41 1.19,-0.41 v 0 q 0.54,0 0.98,0.27 0.44,0.27 0.63,0.82 v 0 l 4.64,13.34 4.77,-13.26 q 0.19,-0.55 0.63,-0.86 0.44,-0.31 0.96,-0.31 v 0 q 0.51,0 0.96,0.31 0.45,0.31 0.65,0.89 v 0 l 4.64,13.4 z M 51.12,0 q -0.79,0 -1.25,-0.44 -0.45,-0.43 -0.45,-1.22 v 0 -15.92 q 0,-0.79 0.45,-1.22 0.46,-0.44 1.25,-0.44 v 0 h 9.85 q 0.79,0 1.23,0.35 0.43,0.36 0.43,1.01 v 0 q 0,0.69 -0.43,1.05 -0.44,0.37 -1.23,0.37 v 0 h -8.11 v 5.3 h 7.56 q 0.79,0 1.23,0.35 0.44,0.36 0.44,1.04 v 0 q 0,0.65 -0.44,1.01 -0.44,0.35 -1.23,0.35 v 0 h -7.56 v 5.63 h 8.11 q 0.79,0 1.23,0.36 0.43,0.37 0.43,1.06 v 0 q 0,0.65 -0.43,1.01 Q 61.76,0 60.97,0 V 0 Z M 67.19,0 Q 66.4,0 65.95,-0.44 65.5,-0.87 65.5,-1.66 v 0 -15.92 q 0,-0.79 0.45,-1.22 0.45,-0.44 1.24,-0.44 v 0 h 9.85 q 0.79,0 1.23,0.35 0.44,0.36 0.44,1.01 v 0 q 0,0.69 -0.44,1.05 -0.44,0.37 -1.23,0.37 v 0 h -8.1 v 5.3 h 7.56 q 0.79,0 1.23,0.35 0.43,0.36 0.43,1.04 v 0 q 0,0.65 -0.43,1.01 -0.44,0.35 -1.23,0.35 v 0 h -7.56 v 5.63 h 8.1 q 0.79,0 1.23,0.36 0.44,0.37 0.44,1.06 v 0 q 0,0.65 -0.44,1.01 Q 77.83,0 77.04,0 v 0 z m 20.72,0.14 q -0.82,0 -1.3,-0.48 -0.48,-0.48 -0.48,-1.27 v 0 -14.74 h -4.97 q -1.63,0 -1.63,-1.44 v 0 q 0,-1.45 1.63,-1.45 v 0 h 13.46 q 1.64,0 1.64,1.45 v 0 q 0,1.44 -1.64,1.44 v 0 h -4.97 v 14.74 q 0,0.79 -0.48,1.27 -0.47,0.48 -1.26,0.48 z m 12.17,0.02 q -0.79,0 -1.27,-0.49 -0.48,-0.49 -0.48,-1.28 v 0 -16.02 q 0,-0.79 0.48,-1.27 0.48,-0.48 1.27,-0.48 v 0 q 0.82,0 1.29,0.48 0.48,0.48 0.48,1.27 v 0 16.02 q 0,0.79 -0.48,1.28 -0.47,0.49 -1.29,0.49 z M 107.69,0 Q 106.9,0 106.45,-0.44 106,-0.87 106,-1.66 v 0 -15.92 q 0,-0.79 0.45,-1.22 0.45,-0.44 1.24,-0.44 v 0 h 9.85 q 0.8,0 1.23,0.35 0.44,0.36 0.44,1.01 v 0 q 0,0.69 -0.44,1.05 -0.43,0.37 -1.23,0.37 v 0 h -8.1 v 5.3 H 117 q 0.79,0 1.23,0.35 0.43,0.36 0.43,1.04 v 0 q 0,0.65 -0.43,1.01 -0.44,0.35 -1.23,0.35 v 0 h -7.56 v 5.63 h 8.1 q 0.8,0 1.23,0.36 0.44,0.37 0.44,1.06 v 0 q 0,0.65 -0.44,1.01 Q 118.34,0 117.54,0 v 0 z"
                       transform="translate(-1.09,19.49)"
                       id="path66" />
                  </g>
                </mask>
              </defs>
            </g>
          </g>
        </g>
      </g>
      <!---->
    </g>
  </g>
</svg>
